<svg xmlns="http://www.w3.org/2000/svg" viewBox="0 0 228.37 431.59"><style><![CDATA[.T{fill:#3e3127}.U{fill:#fff}.V{fill:#e8af94}.W{fill:#b55c4e}.X{fill:#fdd2bf}.Y{fill:#d59254}.Z{fill:#dbcec8}.a{opacity:.65}.b{fill:#f9b47a}]]></style><path d="M106.3 311.32h21.4a22.49 22.49 0 0 1 22.49 22.49v93.8a0 0 0 0 1 0 0H83.8a0 0 0 0 1 0 0v-93.8a22.49 22.49 0 0 1 22.49-22.49z" class="U"/><path d="M150.66 328.2V429.6s-13.52 1.57-12.84 0c7.8-18 6-116.22 6-116.22a19.33 19.33 0 0 1 6.84 14.84z" class="Z"/><path d="M172.9 416.7h-16.73m-5.77-92.82h0c11.42 0 17.4 9.26 17.4 20.68v64.1h-18.2z" class="U"/><path d="M150.45 324.23h5.17v85.74h-5.17z" class="Z"/><path d="M150.2 409.46v17.26h.4c9 0 16.33-7.73 16.33-17.26z" class="X"/><path d="M155.07,410.36v16.82a15.89,15.89,0,0,1-3.67.44H151V410.36Z" class="V"/><g class="T"><path d="M165.42 355.7h3v3.5h-3zm0 8.87h3v7.54h-3zm0 12.93h3v3.5h-3zm-17.36 54.1h-8.94v-4h8.94a.39.39 0 0 0 .39-.39v-99.8a11.87 11.87 0 0 0-11.86-11.86h-4.87v-4h4.87a15.88 15.88 0 0 1 15.86 15.86v99.8a4.4 4.4 0 0 1-4.39 4.39z"/><path d="M150.85 429h-.4v-4h.4c7.9 0 14.32-6.85 14.32-15.26v-27.1h4v27.13c0 10.62-8.17 19.23-18.32 19.23zm18.32-75.32h-4v-12.2c0-8.42-6.42-15.26-14.32-15.26h-.4v-4h.4c10.1 0 18.32 8.64 18.32 19.26z"/><path d="M150.45 407.77h16.72v4h-16.72z"/></g><path d="M60.4 416.7h16.73m9.07-8.05h0A20.68 20.68 0 0 1 65.53 388v-64.1H86.2z" class="U"/><path d="M82.86 409.96H77.7v-85.74h5.17z" class="Z"/><path d="M83.13 409.46v17.26h-.4c-9 0-16.33-7.73-16.33-17.26z" class="X"/><path d="M78.24,410.36v16.82a15.91,15.91,0,0,0,3.68.44h.4V410.36Z" class="V"/><g class="T"><path d="M64.9 355.7h3v3.5h-3zm0 8.87h3v7.54h-3zm0 12.93h3v3.5h-3zm74.22 54.1H85.26a4.4 4.4 0 0 1-4.39-4.39v-99.8a15.88 15.88 0 0 1 15.86-15.86h35v4h-35a11.87 11.87 0 0 0-11.86 11.86v99.8a.39.39 0 0 0 .39.39h53.86z"/><path d="M82.87 429h-.4c-10.1 0-18.33-8.64-18.33-19.26v-27.1h4v27.13c0 8.4 6.43 15.26 14.33 15.26h.4zm-14.73-75.32h-4v-12.2c0-10.62 8.23-19.26 18.33-19.26h.4v4h-.4c-7.9 0-14.33 6.84-14.33 15.26z"/><path d="M66.14 407.77h16.72v4H66.14z"/></g><path d="M66.68 404.92a1 1 0 0 1-.69-1.7l10-10.32a1.001 1.001 0 1 1 1.42 1.41L67.4 404.6a1 1 0 0 1-.72.3zm4.1-9.5a1 1 0 0 1-.72-1.69l6-6.22a1 1 0 0 1 1.44 1.38l-6 6.23a1 1 0 0 1-.72.3z" fill="#3c3127"/><g class="Z"><path d="M88.27 385.54a1.91 1.91 0 0 1 .22 1v.65a4.67 4.67 0 0 1 0 .52 8.87 8.87 0 0 0 0 1.46c.08.9 0 5.56 0 6v5.87a5.61 5.61 0 0 1 0 .58l.12 2.5v1.9c-.07 1.33 0 2.65 0 4v.8a4.51 4.51 0 0 0 0 .52 26 26 0 0 1 0 2.79 1.45 1.45 0 0 0 0 .36c.08.7 0 1.37 0 2.06v3.45a.76.76 0 0 0 0 .15 13.84 13.84 0 0 1-.07 2.41 6 6 0 0 0 0 1.47 1 1 0 0 1 0 .29c-.06.48 0 1-.07 1.46v.07a1.24 1.24 0 0 1-.38.16 3.46 3.46 0 0 1-.87-.41 1.17 1.17 0 0 1 0-.2 1 1 0 0 0-.2-.58.57.57 0 0 1-.07-.35c.1-1 0-2 .06-2.93V414a10.24 10.24 0 0 1 0-1.1v-9.46a.65.65 0 0 0 0-.14c-.12-.85-.07-3.44-.07-3.62v-6.85l.08-6a.64.64 0 0 1 .09-.34c0-.1.07-.22.12-.32s.14-.15.18-.25a3 3 0 0 0 .08-.35.16.16 0 0 1 .21-.14c.16.05.48.08.57.1z"/><circle cx="140.23" cy="413.61" r="7.89"/><circle cx="131.72" cy="400.2" r="3.05"/></g><rect x="103.46" y="284.05" width="25.96" height="47.59" rx="12.98" class="X"/><path d="M128.14 300.9v13.9c-12.3-3.2-20.52-7.7-26-12.54v-.48z" class="V"/><g class="T"><path d="M116.2 333.65a15 15 0 0 1-15-15V297a15 15 0 0 1 30 0v21.64a15 15 0 0 1-15 15.01zm0-47.6a11 11 0 0 0-11 11v21.64a11 11 0 0 0 22 0V297a11 11 0 0 0-11-10.95zm3.98 32.3a4.36 4.36 0 0 1-7.82-.49c-.06-.12.27-.56.8-.7a2 2 0 0 1 1-.08 2.57 2.57 0 0 0 3 1.73 2.91 2.91 0 0 0 1.2-.46l.35-.42c.17-.18.36-.35.6-.23.57.3.92.54.86.65zM73.5 302l-.17-8c0-.1.44-.36 1-.38s1 .24 1 .34L75 299.3l-.18 1.58c0 .1.2 1.25-.35 1.27s-.96-.06-.96-.15z"/><path d="M76.73 293.4L71 301.55a1.13 1.13 0 0 1-1.07-.21c-.45-.32-.63-.84-.56-.94l4.17-5.2 1.3-1.48c.07-.1.75-1.38 1.2-1.06s.75.66.68.76zm108.37-2.96l-6.67-11.05a1.17 1.17 0 0 1 1.72-1l4.1 7.6 1.13 2.3c.08.13 1.2 1.64.72 1.92s-.92.37-1 .23z"/><path d="M181.52 276.05l-1.28 16.25a1.1 1.1 0 0 1-1.05.65 1.12 1.12 0 0 1-.94-.8l1.26-10.84.47-3.18c0-.2 0-2.56.57-2.52s1 .24.97.44zm32.85-219l-.6 12.94a1.1 1.1 0 0 1-1 .53c-.55 0-1-.47-1-.62l.82-8.6.34-2.52c0-.16-.1-2 .47-2s1 .12.98.28z"/><path d="M209.33 71l10.1-12.8a1.11 1.11 0 0 1 1.24 0 1.09 1.09 0 0 1 .33 1.19l-7.07 8.3-2.16 2.38c-.13.16-1.44 2.12-1.88 1.77s-.68-.7-.56-.85zM51.24 219.1h0zm-.17 0h0zm-2.15 73.07l1-8a1.31 1.31 0 0 1 1-.22c.55.07 1 .38.95.48l-1.1 5.27-.42 1.53c0 .1 0 1.27-.53 1.2s-.9-.16-.9-.26z"/><path d="M53.4 284.16l-6.9 7.2c-.08.1-.63 0-1-.37s-.5-.92-.4-1l4.9-4.53 1.5-1.27c.08-.1 1-1.25 1.35-.87s.62.75.54.84zm154.46-29.44l-7.44-3a1.26 1.26 0 0 1 .05-1.06c.2-.5.6-.83.7-.8l4.82 2.4 1.38.8c.1 0 1.23.3 1 .82s-.37.9-.5.85z"/><path d="M201.24 248.37l5.22 8.5c.07.1-.14.6-.6.9a1.18 1.18 0 0 1-1.09.15l-3.14-5.9-.85-1.8c-.06-.1-1-1.23-.5-1.52s.9-.42.97-.32zM16.67 226.1l3.95-7c.05-.1.57-.1 1.05.18h0c.48.27.74.72.7.8l-3 4.47-1 1.26c0 .1-.46 1.18-.94.9s-.8-.54-.75-.62z"/><path d="M23.82 220.37l-9.1 4.08c-.1.05-.6-.23-.8-.73a1.16 1.16 0 0 1 0-1.1l6.25-2.35 1.88-.6c.1 0 1.35-.8 1.57-.3s.3.95.2 1z"/></g><path d="M22.83 159.7s-19.44-38.3 11.8-83H51.5v83z" class="Y"/><path d="M53.8 82.93v9.15l-9.2-2.36a71.67 71.67 0 0 1-13.71-5.52q2.3-4.2 5.24-8.5a69.71 69.71 0 0 0 15.79 6.69z" class="W"/><path d="M53.94 162.2h-32.7l-.7-1.37c-.2-.4-5.1-10.2-6.08-25.7-.9-14.23 1.53-36.1 18.08-59.83l.74-1.06h20.65zm-29.54-5h24.54v-78h-13c-25.88 37.9-14.47 70.98-11.54 78z" class="T"/><rect x="2.5" y="162.46" width="45.05" height="37.17" rx="18.58" class="U"/><rect x="9.95" y="165.85" width="34.16" height="28.18" rx="14.09" class="X"/><path d="M29 201.06h-7.92a21.09 21.09 0 0 1 0-42.17H29a21.09 21.09 0 0 1 0 42.17zm-7.9-37.17a16.09 16.09 0 0 0 0 32.17H29a16.09 16.09 0 0 0 0-32.17z" class="T"/><rect x="180.82" y="162.46" width="45.05" height="37.17" rx="18.58" fill="#dda38c"/><rect x="188.94" y="168.06" width="28.81" height="23.77" rx="11.88" class="X"/><path d="M207.3 201.06h-7.88a21.09 21.09 0 1 1 0-42.17h7.88a21.09 21.09 0 0 1 0 42.17zm-7.88-37.17a16.09 16.09 0 1 0 0 32.17h7.88a16.09 16.09 0 0 0 0-32.17z" class="T"/><rect x="25.12" y="59.56" width="180.2" height="237.99" rx="90.1" class="X"/><path d="M117.45 299l-3.47.07a90.1 90.1 0 0 1-90.1-90.1v-57.82A90.1 90.1 0 0 1 114 61.05c1.16 0-5.68 0-4.53.07-48.16 1.8-75.64 41.43-75.64 90v57.8c-.02 48.63 35.46 88.25 83.62 90.1z" class="U"/><path d="M17.66 172.88a9 9 0 0 0-.23 15.12 3.91 3.91 0 0 1-.54 2.61c-.64 1.22-2 1.75-2.27 1.53a13.8 13.8 0 0 1-5-7.46 13.27 13.27 0 0 1 .64-8.63 12.55 12.55 0 0 1 3-3.94 6.87 6.87 0 0 1 1.47-1.44c.77-.54 1.67-.78 2-.18.7 1.22 1.1 2.28.93 2.4zm195.92-4.43a14 14 0 0 1 .36 23.49c-.3.22-1.63-.32-2.27-1.54a3.89 3.89 0 0 1-.54-2.6 9.28 9.28 0 0 0 4-4.55 9.82 9.82 0 0 0 .38-6.39 10.41 10.41 0 0 0-1.62-3.7l-1.3-1.16c-.58-.53-1.13-1.1-.8-1.72.68-1.2 1.47-2.02 1.77-1.83z" class="T"/><path d="M198.73 167.63a1.16 1.16 0 0 1 .21.74v.5a2.55 2.55 0 0 1 0 .39 7 7 0 0 0 .05 1.12c.08.7 0 4.24 0 4.6v2.46c.05.28 0 1.65 0 2a3.38 3.38 0 0 1 0 .45c0 .64.15 1.27.13 1.9v1.46c-.06 1 0 2 0 3v1a15.27 15.27 0 0 1 0 2.14 2.62 2.62 0 0 0 0 .28 13.71 13.71 0 0 1 0 1.57v.5a2.71 2.71 0 0 0 0 .4v1.74a.37.37 0 0 0 0 .11 8.17 8.17 0 0 1-.07 1.85 3.51 3.51 0 0 0 0 1.12.81.81 0 0 1 0 .22c0 .37 0 .75-.06 1.12a.08.08 0 0 1 0 .05c0 .06-.3.13-.37.13a4.46 4.46 0 0 1-.87-.31.49.49 0 0 1-.05-.16.67.67 0 0 0-.2-.44.32.32 0 0 1-.07-.27c.1-.74 0-1.5.06-2.24v-5.73a4.73 4.73 0 0 1 0-.84v-7.36a22.06 22.06 0 0 1-.09-2.76v-5.23l.1-4.6a.47.47 0 0 1 .08-.26c.06-.07.08-.17.13-.24s.13-.12.18-.2a2.13 2.13 0 0 0 .07-.27.17.17 0 0 1 .22-.1z" class="V"/><g class="U"><path d="M53.75 98.23a76 76 0 0 0-5.94 10.31l-2.6 5.44a28.53 28.53 0 0 0-2.08 5.44c-.07.26-.64.9-1.18.82s-.84-1-.76-1.3a40 40 0 0 1 3.27-7.58l3.8-7.17 2.58-4c.12-.27 2-3.3 2.42-3s.67.8.5 1.03z"/><path d="M38.7 127.94l1.14-5.64a1.54 1.54 0 0 1 1 0c.54.1.95.38.93.45l-1.16 3.7-.44 1.06c0 .07 0 .92-.55.8s-.94-.3-.92-.37z" opacity=".8"/></g><path d="M115.7 210.93a2.5 2.5 0 0 1-2.5-2.5v-25.67a2.5 2.5 0 0 1 5 0v25.67a2.5 2.5 0 0 1-2.5 2.5zm-1.1 91.74a92.7 92.7 0 0 1-92.6-92.6v-57.8a92.6 92.6 0 0 1 185.2 0v57.8a92.7 92.7 0 0 1-92.6 92.6zm0-238A87.7 87.7 0 0 0 27 152.28v57.8a87.6 87.6 0 0 0 175.2 0v-57.8a87.7 87.7 0 0 0-87.6-87.6z" class="T"/><path d="M204.78 159.2c-16.55-20.57-25.94-51.35-27.8-77.68-25.48 5.4-51.25 10.83-77.3 10.13-16.7-.45-34-2.34-50.1-7C30 78.9 15.75 66.8 8.58 47.5L3.5 33s37.23 15.1 93.77-18S209.6 30.72 209.6 75.4l14.6-7.7s10 60.38-16.73 90.7" class="Y"/><path d="M178.18 93.6c-25.93 2.6-53.8 6.4-79.6 2.85-16.56-2.28-29.53-4-45-10.48h.93c.45-.47-4.1-.93-3.62-1.38 15.66 4.4 32.4 6.18 48.6 6.63 25 .67 49.7-4.3 74.17-9.47q1.78 1.58 3.47 3.26" fill="#dda18a"/><path d="M175.23 79.35c-25.48 5.4-51.23 10.83-77.3 10.13-16.7-.45-34-2.34-50.1-7C28.28 76.74 14 64.62 6.82 45.35L1.74 30.8a52.14 52.14 0 0 0 11.38 2.65l15.8.1c-.14 0 2.4 10.62 2.67 11.64.94 3.7 3.5 7.2 5.85 10.23 0 0 18.72 32.5 138.12 24.34" class="b"/><path d="M206.55 158.13l-1.7 1.8q-.88-1.1-1.74-2.25a107.35 107.35 0 0 0-99-148c53.76-24.58 104.53 21.87 104.53 64.5l14.6-7.7s10.07 61.34-16.7 91.66z" class="W"/><g class="T"><path d="M39.4 73.7l-3.28-2.2a2.92 2.92 0 0 1 1.11-1.66l2 1.8.52.62s.6.2.3.65a2.87 2.87 0 0 1-.66.78zm20.4 5.76a51 51 0 0 1-16-3.55 1.08 1.08 0 0 1-.29-1.2 1.11 1.11 0 0 1 1-.66 48.39 48.39 0 0 0 10.08 3.24l3.1.63c.2 0 2.5 0 2.48.56s-.16 1-.36.98zm42.8-60.58a45.37 45.37 0 0 1-12.87 7 1.06 1.06 0 0 1-.93-.74 1.12 1.12 0 0 1 .28-1.14 43.48 43.48 0 0 0 8.68-3.67l2.46-1.36c.16-.08 1.68-1.46 2-1s.52.8.38.9zm6.17-3.24l-4.1 2.18s-.4-.3-.65-.8a1.82 1.82 0 0 1-.29-1l2.94-1.1.9-.23c.05 0 .56-.5.82 0a2.53 2.53 0 0 1 .38.94zM32.72 91.47A19.45 19.45 0 0 0 31.43 98a1.45 1.45 0 0 1-1 .29 1.32 1.32 0 0 1-1-.34 21.31 21.31 0 0 1 1.08-4.77l.6-1.3c0-.08.2-1.13.72-.92s.9.43.88.5zm3.2-.64l-1.74 4.72a1.72 1.72 0 0 1-1-.14 1.75 1.75 0 0 1-.86-.55l1.55-3 .55-.85c0-.06.1-.8.62-.6s.95.37.88.43zm177.37 15.4a149.09 149.09 0 0 1-7.12 52.13c-.2.62-1.16 2.1-1.68 1.92s-.43-1.92-.23-2.53a147 147 0 0 0 7.14-34.12c.33-3.42.57-6.85.64-10.3L212 109c-.05-1.97 0-3.87.25-3.88a1.08 1.08 0 0 1 1.05 1.12z"/><path d="M219 119.3a226.79 226.79 0 0 1-11.55 39.11c-.2.47-1.1 1.52-1.6 1.3s-.44-1.6-.26-2.05a225.36 225.36 0 0 0 8.83-25.59l2.1-7.7c.14-.48 1.15-6.26 1.68-6.16a1 1 0 0 1 .8 1.09z"/></g><path d="M173.2 288.14c-12.22 7.78-26.74 14.3-42.3 14.3l-29.8 1c-15.56 0-30.08-7.5-42.3-15.3-25.8-16.38-39.23-46.6-35.27-76.85l1.66-12.74s25.36 32.45 54.3 35.38c9.5.95.52-20.13 36.34-20.05h.35c30.2 0 26.83 21 36.34 20.05 28.94-2.9 54.3-35.38 54.3-35.38l1.66 12.74c3.96 30.26-9.47 60.47-35.27 76.85z" class="Y"/><path d="M118.32 302.2c-1.15.05-4.3 1.07-5.47 1.07-10.5 0-19.35-1-29.95-1.46a78.51 78.51 0 0 1-25.25-10.44C31.9 275 18.42 244.8 22.38 214.53L24 201.8s2.07 2.37 8.72 8.74c-15.6 53.6 37.8 89.88 85.6 91.68z" class="U"/><g class="W"><path d="M171 290.5a78.52 78.52 0 0 1-42.3 12.29h-12.42a78.52 78.52 0 0 0 42.3-12.29c25.75-16.38 39.23-46.6 35.27-76.85l-.13-1a121.91 121.91 0 0 0 10.93-11.76l1.66 12.74c3.96 30.28-9.52 60.5-35.3 76.87zM172.66 43a59.88 59.88 0 0 0-29.33-21.19c-.43-.14-1.43-.93-1.28-1.46s1.45-.6 1.9-.44a61.51 61.51 0 0 1 21.57 12.92 57.66 57.66 0 0 1 5.07 5.42c.17.16 1.15 1.26 2 2.38s1.58 2.3 1.36 2.44a1 1 0 0 1-1.29-.07z"/><circle cx="192.55" cy="60.67" r="7.73"/></g><circle cx="36.26" cy="51.07" r="7.73" class="b"/><g class="W"><ellipse cx="183.32" cy="72.06" rx="3.08" ry="2.25" class="a"/><ellipse cx="180.61" cy="57.44" rx="1.54" ry="1.12" class="a"/></g><g class="b"><ellipse cx="48.61" cy="55.59" rx="2.13" ry="1.56" transform="matrix(.51 -.86 .86 .51 -23.95 69.29)" class="a"/><ellipse cx="48.73" cy="47.44" rx="2.69" ry="1.97" transform="matrix(.507238 -.861806 .861806 .507238 -16.87 65.37)" class="a"/></g><path d="M38.6 149.07C51.37 134 72.08 125 93 125.38c5.62.1 12.1 1.37 14.76 6a12.12 12.12 0 0 1 1.39 5.42c.15 2.67-.22 5.6-2.28 7.46-1.86 1.67-4.66 2.08-7.28 2.14-9.93.23-19.64-3.28-29.57-3.42-10.7-.15-20.9 3.6-30.75 7.28" class="V"/><path d="M38.62 143.3c13.15-16.82 31.53-27 52.88-26.72 5.74.07 12.35 1.42 15 6.5a14.23 14.23 0 0 1 1.38 6c.14 3-.26 6.22-2.38 8.3-1.9 1.88-4.78 2.35-7.46 2.44-10.14.34-20-3.5-30.18-3.57-10.92-.08-16.68 4.3-26.78 8.46" class="Y"/><path d="M37.52 143.3l.64 1.27c10.1-4.18 20.54-8.42 31.47-8.33 10.14.08 20 3.9 30.17 3.57 2.68-.1 5.55-.56 7.46-2.45s2.45-4.93 2.4-7.74c-2.88 2.12-6.8 4.28-10.42 4.26a61.64 61.64 0 0 1-14.54-1.41 74.25 74.25 0 0 0-33.27-.32c-7.42 4.38-8.6 4.36-13.9 11.15z" class="W"/><path d="M36.26 142.52A11.43 11.43 0 0 1 38.5 139c.65-.66 1.23-1.4 1.84-2.1a15 15 0 0 1 1.51-1.57l2.28-2.13 2.3-2.1a20.47 20.47 0 0 1 1.64-1.34l2.6-1.92 3.28-2.14 3.67-2.1 3.7-1.82 3.35-1.45 4-1.46 3-.94c1.24-.38 2.68-.7 4.06-1l6.17-1.2c.4-.1 1.17-.2 2.13-.35s2.1-.18 3.27-.27l3.37-.13 2.4-.06a16.76 16.76 0 0 1 2.55.13 39.61 39.61 0 0 1 5.49.93 13.58 13.58 0 0 1 5.33 2.57 12.24 12.24 0 0 1 4.12 6.44 13.81 13.81 0 0 1 .37 1.71 29.64 29.64 0 0 1 .18 4.51 14.87 14.87 0 0 1-.91 4.71 9.06 9.06 0 0 1-3.21 4.19 11.25 11.25 0 0 1-4.66 1.81 20.19 20.19 0 0 1-3.66.27h-2.24a55.53 55.53 0 0 1-11.7-1.56 14 14 0 0 0-1.49-.3l-8.26-1.33-2.62-.32c-.68 0-1.36-.16-2-.15a50 50 0 0 0-9 .63 5.4 5.4 0 0 0-.58.11l-9.43 2.24a30.2 30.2 0 0 0-5.6 2 6.52 6.52 0 0 1-1.09.47c-1.9.6-3.76 1.37-5.64 2.1a2.86 2.86 0 0 1-.28.07c-.3.1-.9-.47-1-.62a8.1 8.1 0 0 1 .73-2.65 5.76 5.76 0 0 1 .72-.44 6.3 6.3 0 0 0 2.06-1.35 3.1 3.1 0 0 1 1.26-.7c3.87-1.28 7.7-2.83 11.74-3.84 1.72-.4 3.43-.9 5.2-1.2a47.88 47.88 0 0 1 13.42-.7c4.44.4 8.73 1.28 12.93 2l4.4.84a33.09 33.09 0 0 0 4.08.57 37.13 37.13 0 0 0 3.49.13 22.57 22.57 0 0 0 3.35-.21 7.68 7.68 0 0 0 3.81-1.45 5.82 5.82 0 0 0 1.88-3.34 14.83 14.83 0 0 0 .27-3.81 15.76 15.76 0 0 0-.57-3.81 8.37 8.37 0 0 0-4.64-5.14 5.11 5.11 0 0 0-.48-.22 24.93 24.93 0 0 0-3.23-.84 30.57 30.57 0 0 0-4.43-.51c-3-.06-5.86 0-6.2.1-1.5.12-3 .24-4.54.5l-2.26.34-2.24.43a83.14 83.14 0 0 0-8.78 2.4c-1.25.44-2.5.92-3.73 1.4l-3.62 1.66c-.35.18-.7.38-1 .54A66.13 66.13 0 0 0 42 140.45a4.16 4.16 0 0 1-1.08.84 13 13 0 0 0-1.07.76c-.34.2-.65.26-1 .5s-.7.65-1.05 1-.68.35-.8.12-.65-.9-.75-1.15z" class="T"/><path d="M187.1 149c-12.76-15-33.47-24.06-54.38-23.7-5.6.1-12.1 1.37-14.75 6a12.12 12.12 0 0 0-1.39 5.42c-.15 2.67.2 5.6 2.27 7.46 1.86 1.67 4.67 2.08 7.3 2.14 9.93.23 19.64-3.28 29.57-3.42 10.7-.15 20.9 3.6 30.75 7.28" class="V"/><path d="M188.1 143.24c-13.15-16.82-31.53-27-52.88-26.72-5.74.07-12.35 1.42-15 6.5a14.22 14.22 0 0 0-1.37 6c-.14 3 .26 6.22 2.38 8.3 1.9 1.88 4.78 2.35 7.46 2.44 10.14.34 20-3.5 30.18-3.57 10.92-.08 16.67 4.3 26.77 8.46" class="Y"/><path d="M188.2 143.23l-.64 1.27c-10.1-4.18-20.54-8.42-31.47-8.33-10.14.08-20 3.9-30.17 3.57-2.68-.1-5.56-.56-7.46-2.45s-2.46-4.93-2.4-7.74c2.88 2.12 6.8 4.28 10.42 4.26A61.55 61.55 0 0 0 141 132.4a74.3 74.3 0 0 1 33.28-.32c7.43 4.38 8.6 4.36 13.9 11.15z" class="W"/><path d="M187.6 143.92a12.58 12.58 0 0 1-2.94-2.66l-1.88-1.86-1.5-1.4-2.15-2-2.33-1.8c-.35-.3-.9-.68-1.6-1.2l-2.46-1.78-3.08-2-3.44-2-3.48-1.8-3.14-1.45-3.78-1.48-2.87-1c-1.18-.4-2.54-.7-3.85-1.06a42.16 42.16 0 0 0-5.87-1.06c-.4 0-1.12-.1-2-.23l-3.1-.27-3.2-.13c-.97-.03-1.78 0-2.25 0l-2.28.14A16 16 0 0 0 122 122a7.28 7.28 0 0 0-2.66 4.09c-.1.4-.17.83-.25 1.26a13.59 13.59 0 0 0 .36 7 4.8 4.8 0 0 0 1.72 2.21 7.83 7.83 0 0 0 2.93 1.11 16.44 16.44 0 0 0 3 .3 16.85 16.85 0 0 0 2 0c3.65-.26 7.35-.72 11.13-1.3a14.27 14.27 0 0 0 1.48-.24 80 80 0 0 1 8.47-1.45c.9-.15 1.86-.2 2.8-.28l2.2-.1a43.79 43.79 0 0 1 9.78.58l.62.1a41.5 41.5 0 0 1 9.88 2.72 58.38 58.38 0 0 0 5.78 2 6.81 6.81 0 0 1 1.15.4c1.83.87 3.72 1.62 5.58 2.42.1 0 .16.1.25.15.3.15.32 1 .25 1.13a8.36 8.36 0 0 1-2.38 1.36 6.07 6.07 0 0 1-.82-.19 6 6 0 0 0-2.4-.45 3.12 3.12 0 0 1-1.37-.35 84 84 0 0 0-11.2-4 48.22 48.22 0 0 0-4.87-1.1 43.72 43.72 0 0 0-12.29-.65c-4.13.37-8.3 1.2-12.56 2-1.5.27-3 .5-4.57.64l-4.34.4a59.4 59.4 0 0 1-3.78.18 24.94 24.94 0 0 1-3.91-.2 11.3 11.3 0 0 1-5.67-2.29 9.57 9.57 0 0 1-3.14-5.45 18.76 18.76 0 0 1-.33-4.8 19.5 19.5 0 0 1 .76-4.72 11.56 11.56 0 0 1 2.55-4.42 13.4 13.4 0 0 1 4-2.91l.6-.3a17.33 17.33 0 0 1 3.84-1.36 29.3 29.3 0 0 1 5.08-.68 61.66 61.66 0 0 1 6.64.16c1.62.1 3.23.2 4.83.46l2.4.33 2.37.48a68.05 68.05 0 0 1 9.3 2.55l3.93 1.5L165 122c.37.2.75.36 1.1.56a78.75 78.75 0 0 1 11.45 7.35 73.57 73.57 0 0 1 8.77 8 4.84 4.84 0 0 1 .82 1.18c.18.37.46.83.63 1.22s.16.7.34 1.1.53.82.77 1.23.22.73 0 .8-1.02.46-1.28.5z" class="T"/><path d="M51.74 267.42a76.33 76.33 0 0 1-15.93-24.79c-.13-.34-.06-1.4.46-1.58s1.27.52 1.4.85a74.42 74.42 0 0 0 9 17.07l3.4 4.6c.1.14.9 1 1.62 1.8s1.4 1.64 1.2 1.83c-.37.4-.9.5-1.15.22zM67 274.9a51.91 51.91 0 0 1-17.41-16.13 1.28 1.28 0 0 1 .25-1.43 1.29 1.29 0 0 1 1.41.32 50.17 50.17 0 0 0 10.16 11.56l3.6 2.86c.1.08.9.53 1.65 1s1.43 1 1.3 1.2c-.3.5-.74.77-.94.62z" fill="#fac69a"/><g class="T"><path d="M163.64 243.27l-4.26-6.8c0-.08.2-.54.66-.83s1-.32 1-.23l2.5 4.76.65 1.45c.06.08.82 1 .36 1.26s-.85.47-.9.38z"/><path d="M162 234.25l-.74 9.94c0 .12-.48.4-1 .37s-1-.4-1-.52l.9-6.6.36-1.94c0-.12-.06-1.57.5-1.53s1 .17 1 .3zm-15.08 55l-4.26-6.8c0-.1.2-.54.66-.84a1.29 1.29 0 0 1 1-.23l2.5 4.76.65 1.46c.05.08.82 1 .35 1.26s-.82.46-.9.38z"/><path d="M145.28 280.24l-.74 9.94c0 .12-.48.4-1 .37s-1-.4-1-.52l.9-6.6.36-1.94c0-.13-.06-1.57.5-1.53s1 .17 1 .3zM39.86 227.7l.93-8c0-.1.48-.3 1-.24s1 .37 1 .47l-1 5.28-.4 1.54c0 .1 0 1.27-.52 1.2s-1.02-.15-1-.25z"/><path d="M44.22 219.63l-6.8 7.3c-.1.1-.63 0-1-.36s-.5-.92-.43-1l4.8-4.56 1.5-1.3c.1-.1.94-1.26 1.34-.9s.66.72.58.8z"/></g><g class="U"><ellipse cx="75.04" cy="277.61" rx="1.57" ry="2.24"/><circle cx="86.95" cy="287.9" r="1.71"/><path d="M70.33 290.62a6.59 6.59 0 0 1 12.36 4.57m-38.2-83.9a1.61 1.61 0 0 1 .82.37 4.26 4.26 0 0 0 .49.34 3.09 3.09 0 0 1 .37.26 8.76 8.76 0 0 0 1.07.77c.68.45 3.93 3 4.27 3.27l2.34 1.67c.34.13 1.58 1.1 2 1.3a4.08 4.08 0 0 1 .44.28c.6.44 1.33.66 1.94 1.07.38.26.78.48 1.17.7a2.69 2.69 0 0 1 .29.16c1 .65 2 1.1 3.08 1.67l.64.32a3 3 0 0 0 .4.2l2.24 1a1.85 1.85 0 0 0 .29.13 17.39 17.39 0 0 1 1.71.61l.55.2a3.45 3.45 0 0 0 .42.14l1.93.54h.13a17.61 17.61 0 0 1 2 .53 4.64 4.64 0 0 0 1.27.22 1.06 1.06 0 0 1 .25 0 3.48 3.48 0 0 0 1.14.11h0c.05 0 .16.3.17.36a2.31 2.31 0 0 1-.28.9.56.56 0 0 1-.21.06 1.28 1.28 0 0 0-.6.17.43.43 0 0 1-.34 0l-2.66-.54-1.12-.27a39.62 39.62 0 0 1-5.43-1.78 9.47 9.47 0 0 1-.91-.43 9.2 9.2 0 0 0-.84-.4l-1.46-.68-2-1-3.27-1.93a.34.34 0 0 0-.11-.07 23.44 23.44 0 0 1-2.69-1.63l-1.7-1.16-1.66-1.2-1.44-1.06-.22-.15-4.24-3.37a.58.58 0 0 1-.18-.26c0-.1-.1-.18-.15-.27a2.86 2.86 0 0 0-.07-.28 1.46 1.46 0 0 0-.2-.25.18.18 0 0 1 0-.25l.37-.35z"/><path d="M53.54 213.42a.6.6 0 0 1 .53.07 2.75 2.75 0 0 0 .3.14 1.75 1.75 0 0 1 .24.11 2.75 2.75 0 0 0 .66.34c.43.17 2.4 1.48 2.6 1.6a12.27 12.27 0 0 0 1.4.84c.2.06.93.56 1.16.65a1.08 1.08 0 0 1 .26.14c.35.24.8.3 1.15.53s.44.26.67.4a1.29 1.29 0 0 1 .16.09c.55.38 1.17.63 1.74 1l.35.2a1 1 0 0 0 .22.13 7.33 7.33 0 0 1 1.23.67.51.51 0 0 0 .16.09 7.84 7.84 0 0 1 .93.43c.1 0 .2.1.3.15a2.53 2.53 0 0 0 .23.12c.36.12.7.3 1 .45h.07a3.51 3.51 0 0 1 1.08.53 1.46 1.46 0 0 0 .69.26.25.25 0 0 1 .14 0 3.63 3.63 0 0 0 .66.31h0s0 .32-.05.38a5.11 5.11 0 0 1-.49.75h-.1a.39.39 0 0 0-.35.08.15.15 0 0 1-.19 0c-.44-.26-.93-.4-1.38-.62-.2-.1-.4-.16-.6-.24l-2.9-1.35a3 3 0 0 1-.48-.3 2.56 2.56 0 0 0-.45-.27l-.8-.4-1.12-.6-1.85-1.07a.15.15 0 0 0-.07 0 9.83 9.83 0 0 1-1.62-.87l-1-.57-1-.6c-.33-.22-.58-.34-.87-.5l-.13-.07c-.44-.32-2.33-1.5-2.56-1.64a.2.2 0 0 1-.1-.16c0-.07-.06-.12-.08-.2a1.5 1.5 0 0 0 0-.22.53.53 0 0 0-.11-.15.21.21 0 0 1 0-.22z" opacity=".5"/></g><path d="M34.48 100.57A39.49 39.49 0 0 0 27 116.36a1.13 1.13 0 0 1-1.14.57 1.1 1.1 0 0 1-.81-1 41.36 41.36 0 0 1 4.77-11.31l2.1-2.93c.1-.2 1.55-2.42 2-2.06s.7.77.57.94z" fill="#fac69a"/><ellipse cx="154.44" cy="184.85" rx="30.26" ry="28.95" class="V"/><circle cx="154.5" cy="177.4" r="30.26" class="U"/><rect x="149.03" y="160.69" width="12.6" height="31.49" rx="6.3" class="T"/><circle cx="161.16" cy="170.91" r="5.91" class="U"/><path d="M184.77 178.06a30.27 30.27 0 1 1-60.53 0l.13-2.74a30.26 30.26 0 0 0 60.26 0 24.76 24.76 0 0 1 .14 2.74z" fill="#c2d9dd"/><path d="M126.66 180a28.27 28.27 0 0 0 53 11.68 27.85 27.85 0 0 0 3.17-9.84 9.36 9.36 0 0 1 .29-1 8 8 0 0 1 .49-1.2c.4-.8.94-1.5 1.5-1.5s1 .73 1.34 1.64a8.07 8.07 0 0 1 .35 1.41 4.1 4.1 0 0 1 0 1.16 32 32 0 0 1-18 24.37l-1.8.8-1.85.65-.92.32-1 .24-1.9.46c-.64.13-1.3.2-1.93.3a15.76 15.76 0 0 1-1.94.21 29.71 29.71 0 0 1-3.89 0 30.91 30.91 0 0 1-14.57-4.41 30.28 30.28 0 0 1-6.93-5.82 29.85 29.85 0 0 1-4.95-7.5 27.53 27.53 0 0 1-2.57-7.11c-.7-3.4-.47-6.7 0-6.7a2.07 2.07 0 0 1 2.11 1.83z" class="T"/><ellipse cx="77.1" cy="183.38" rx="30.61" ry="29.34" class="V"/><circle cx="77.04" cy="175.78" r="30.61" class="U"/><path d="M46.43 176.45a30.61 30.61 0 1 0 61.22 0l-.13-2.78a30.6 30.6 0 0 1-60.95 0 25.62 25.62 0 0 0-.14 2.78z" fill="#c2d9dd"/><path d="M108.2 178.7a32.66 32.66 0 0 1-19.78 27.9 32.83 32.83 0 0 1-33.82-5.17 32.27 32.27 0 0 1-11.22-20.61 4.1 4.1 0 0 1 0-1.16 9.07 9.07 0 0 1 .36-1.43c.3-.92.78-1.66 1.33-1.66s1.1.72 1.5 1.52a8.18 8.18 0 0 1 .49 1.22 7.12 7.12 0 0 1 .29 1A28.8 28.8 0 0 0 63 202.6l1.6.8 1.67.63.83.32.86.24 1.73.47 1.77.3a15.08 15.08 0 0 0 1.77.25 26.93 26.93 0 0 0 3.59.12 28.71 28.71 0 0 0 13.77-3.79 29.62 29.62 0 0 0 11.87-12.09 32.7 32.7 0 0 0 2.39-6.86c.76-3.22.9-6.42 1.5-6.43a1.94 1.94 0 0 1 1.85 2.13zm2.9 69.67h-5.52a2 2 0 1 1 0-4h5.52a37.8 37.8 0 0 0 21.62-6.75 2.001 2.001 0 0 1 2.28 3.29 41.84 41.84 0 0 1-23.9 7.46z" class="T"/><g class="W"><path d="M50.88 223.48a3.6 3.6 0 0 1 1.66.92c.3.28.67.5 1 .76a7.38 7.38 0 0 1 .77.58 14.7 14.7 0 0 0 2.23 1.64l5 3.3a47.08 47.08 0 0 0 4.67 2.53 32 32 0 0 0 3 1.23 17.13 17.13 0 0 0 2.65.78 45.35 45.35 0 0 0 4.81.89c.35 0 .7.06 1 .1a6.53 6.53 0 0 0 3.71-.82 4.32 4.32 0 0 0 1.58-1.47l.3-.5c1.23-1.8 1.64-4.47 3.13-6.95.3-.5.6-1 1-1.42l.65-.87a15.77 15.77 0 0 1 4.19-4c.2-.16.44-.27.63-.44a15 15 0 0 1 3.71-2.13 9.75 9.75 0 0 1 1.31-.48c.34-.13.7-.18 1-.3l4.24-1.2a1.2 1.2 0 0 0 .27-.08 19.18 19.18 0 0 1 4.65-1 17.88 17.88 0 0 0 2.89-.52 2.43 2.43 0 0 1 .59-.1h3.14c.05 0 .3.63.3.76a9.44 9.44 0 0 1-.8 1.73 1.58 1.58 0 0 1-.37.11 1.7 1.7 0 0 0-1 .44.83.83 0 0 1-.6.2 27.3 27.3 0 0 0-5.35.85c-.76.16-1.52.4-2.3.6l-2.9.8-1.48.4-1.3.4a17.44 17.44 0 0 0-4.88 2.65l-1.55 1.2a8.75 8.75 0 0 0-1.32 1.26 16.43 16.43 0 0 0-1.81 2.55 26.54 26.54 0 0 0-1.86 4.18 16.74 16.74 0 0 1-2 3.93 7.67 7.67 0 0 1-4 2.84 1.8 1.8 0 0 0-.33.1 7.5 7.5 0 0 1-2 .41 13.93 13.93 0 0 1-2.5-.06c-1.6-.18-2.9-.5-3.1-.53a35.18 35.18 0 0 1-4.44-1.12 35.94 35.94 0 0 1-4.27-1.63l-3.55-1.75-.52-.27-5.3-3.57-4.3-3.5a1.19 1.19 0 0 1-.39-.56c-.08-.2-.23-.4-.3-.6s-.05-.4-.13-.58a4.21 4.21 0 0 0-.4-.57.34.34 0 0 1 .09-.5c.18-.1.66-.53.83-.63z" opacity=".8"/><path d="M44.14 229.58L56.8 236a1.12 1.12 0 0 1 .12 1.18 1.07 1.07 0 0 1-1 .61l-8.3-4.65-2.4-1.47c-.15-.07-2.06-.84-1.8-1.33s.58-.84.72-.76zm79.98-5.16a89.07 89.07 0 0 0-17.88.51 1.15 1.15 0 0 1-.93-.89 1.13 1.13 0 0 1 .68-1.1 92.24 92.24 0 0 1 12.21-.34l3.58.3c.22 0 2.86 0 2.82.54s-.26.98-.48.97z" opacity=".5"/></g><g class="T"><path d="M38.5 38.6a140.33 140.33 0 0 0 46.43-12.84c.53-.26 2.13-.53 2.38 0s-1 1.58-1.52 1.84a142.36 142.36 0 0 1-31.11 10.09l-9.52 1.5c-.3 0-2.18.35-4 .55s-3.6.25-3.63 0a1.05 1.05 0 0 1 .97-1.13zM165.9 76a228.65 228.65 0 0 1-73 8c-.9 0-3.25-.63-3.2-1.18S92.1 82 93 82a227.07 227.07 0 0 0 48.79-2.33c4.75-.72 9.5-1.55 14.2-2.58.44-.08 3.22-.8 5.9-1.46s5.24-1.3 5.32-1c.14.5-.44 1.12-1.3 1.37zm-10.37-2.3a167.06 167.06 0 0 1-53.31 5.78c-.66 0-2.37-.47-2.34-.87s1.77-.63 2.42-.6a166 166 0 0 0 35.62-1.65c3.47-.52 6.93-1.12 10.36-1.87.33-.06 2.36-.6 4.32-1.07s3.83-1 3.9-.75c.1.4-.32.84-.96 1.02z"/><rect x="70.01" y="160.69" width="12.6" height="31.49" rx="6.3" transform="matrix(-1 0 0 -1 152.61 352.87)"/></g><circle cx="70.48" cy="170.91" r="5.91" class="U"/><g class="W"><ellipse cx="184.55" cy="254.35" rx="1.57" ry="2.24"/><ellipse cx="172.17" cy="256.76" rx="1.27" ry="1.9"/><ellipse cx="174.14" cy="266.37" rx="5.95" ry="4.4" transform="matrix(.633786 -.773508 .773508 .633786 -142.27 232.27)"/></g><path d="M204.17 160.2a2.5 2.5 0 0 1-1.95-.94c-14.9-18.52-25.55-47.5-28.1-76.2-24.4 5.16-49.6 10.26-75.1 9.6-19.5-.53-36.08-2.86-50.73-7.14C27.23 79.38 12.9 66.4 5.62 46.9L.53 32.3a2.5 2.5 0 0 1 3.3-3.14c.36.14 36.9 14.2 91.57-17.84 25-14.63 52-15.08 76.14-1.26C194.1 23 209.7 46.6 211.34 69.84L222.42 64a2.51 2.51 0 0 1 3.64 1.8 183 183 0 0 1 1.7 34.51c-1.14 25.64-7.54 45.25-19 58.26a2.51 2.51 0 0 1-2.63.73 2.53 2.53 0 0 1-.37.36 2.46 2.46 0 0 1-1.59.54zm-27.8-82.68a2.49 2.49 0 0 1 2.5 2.33c2 28.07 12 56.7 26.33 75.13 21.82-25.06 18-71.83 16.4-84.9l-11.44 6a2.5 2.5 0 0 1-3.67-2.21c0-22.77-15.05-46.7-37.44-59.52-13-7.47-39.6-17.24-71.12 1.23-45.8 26.84-79 22.67-91.06 19.68l3.46 9.9C17 63.07 30.23 75 49.7 80.7c14.23 4.15 30.4 6.42 49.46 6.94 25.92.7 51.73-4.78 76.72-10.07a2.22 2.22 0 0 1 .51-.06zM99.83 305.5c-16.86 0-32.12-8.35-43.54-15.62-26.13-16.62-40.36-47.6-36.26-79l2.43-18.6 3.67 4.7a127.27 127.27 0 0 0 16 16.23c8.76 7.45 22.18 16.62 36.4 18 1.27.12 1.65-.16 3.3-3.66 2.86-6.1 7.66-16.32 32.44-16.32h.66c20.27 0 26.5 9.28 30.6 15.4 2.4 3.54 3.4 4.77 5.2 4.58 27.44-2.76 52.1-34 52.35-34.28l3.68-4.7 2.43 18.6c4.1 31.35-10.14 62.34-36.26 79h0c-15.46 9.84-29.67 14.62-43.47 14.62l-29.6 1zm-73.92-101l-.9 7.07c-3.85 29.43 9.5 58.5 34 74.1 10.85 6.9 25.3 14.84 40.8 14.84l29.6-1c12.9 0 26.23-4.52 40.86-13.84h0c24.5-15.58 37.84-44.66 34-74.1l-.93-7.1c-8.18 9.15-28.77 29.46-52.07 31.8-4.94.5-7.45-3.2-9.86-6.77-3.95-5.87-8.88-13.2-26.58-13.2h-.56c-21.6 0-25.23 7.77-27.9 13.44-1.54 3.3-3.28 7-8.32 6.52-23.34-2.34-43.93-22.65-52.12-31.8z" class="T"/></svg>