<svg xmlns="http://www.w3.org/2000/svg" viewBox="0 0 228.37 465.34"><style><![CDATA[.Z{fill:#3e3127}.a{fill:#e8af94}.b{fill:#fff}.c{fill:#fdd2bf}.d{fill:#637582}.e{fill:#455760}.f{fill:#34454c}.g{fill:#8898a8}.h{fill:#19a5af}]]></style><path d="M98.92 264.16h33.8a0 0 0 0 1 0 0v61.4a16.89 16.89 0 0 1-16.89 16.89h0a16.89 16.89 0 0 1-16.89-16.89v-61.4a0 0 0 0 1-.01 0z" class="c"/><path d="M134.4,305.26V315.4a90.48,90.48,0,0,1-33.79.68V305.94a90.48,90.48,0,0,0,33.79-.68Z" class="a"/><path d="M115.23 343.65a10 10 0 0 1-5.44-.46 20.86 20.86 0 0 1-3.44-1.48 16.24 16.24 0 0 1-2.45-1.62 22.29 22.29 0 0 1-5.19-6.56 17.09 17.09 0 0 1-1.79-7c-.06-.86 0-1.6 0-2.4v-7.6l.14-14.7v-16.68c-.14-1.9 0-11.12-.08-13.65v-9.22l4.08-.1 2.22-.1c1.44-.05 2.88-.1 4.32-.06h9.9c2.54.07 5.08.08 7.63.07h9.8q0 3.72 0 7.44l-.05 4.18v2.65c.15 4.82 0 9.62-.1 14.4 0 .64-.06 1.3 0 1.9.2 3.53 0 7.07.05 10.6v3.4c0 .9-.05 1.78 0 2.66.1 3.93 0 7.85.05 11.78v.76a82.25 82.25 0 0 1 .08 3.14c0 .5 0 1.08-.06 1.67l-.06.87-.14.87a17.8 17.8 0 0 1-2.45 6.45 25.2 25.2 0 0 1-5.58 6.16 8.58 8.58 0 0 1-1.39.92 19.77 19.77 0 0 1-8 2.26h-.4c-.45 0-.92-.74-.9-.9a10.16 10.16 0 0 1 .89-1.17 7.19 7.19 0 0 1 1-1.14 8.91 8.91 0 0 1 .92-.27 5 5 0 0 0 2.45-1.2 5.5 5.5 0 0 1 1.33-.79 13 13 0 0 0 5.13-4.1 15.87 15.87 0 0 0 2.78-6l.22-1.4c0-.48.05-.95.07-1.42v-35.6c0-1.9 0-3.8.1-5.68s.1-3.54.1-5.3v-13.1h-5.1L103.3 266c-.52 0-1.17.07-1.92.1h-.53v47.62l-.1 6.82v4.74a15.85 15.85 0 0 0 .57 4.45 15 15 0 0 0 4.27 6.93 15.24 15.24 0 0 0 3.88 2.59 8.92 8.92 0 0 1 1.38.77 13.23 13.23 0 0 0 1.35.71 6.1 6.1 0 0 0 1.11.65 5.56 5.56 0 0 0 .81.23l.87.13c.56.1.85.34.7.57s-.3 1.12-.48 1.35z" class="Z"/><g class="a"><circle cx="123.68" cy="317.39" r="4.46"/><circle cx="116.56" cy="322.53" r="1.99"/></g><rect x="155.43" y="82.94" width="61.58" height="122.98" rx="30.47" fill="#59717a"/><path d="M214.36 99.77h-55.14a30.47 30.47 0 0 1 8.91-10.69h37.33a30.53 30.53 0 0 1 8.9 10.69z" class="f"/><path d="M37.48 203.1h-.64C20 203.1 25 191.52 25 174.7L9.9 116.45a29.82 29.82 0 0 1 3-22.89 27.33 27.33 0 0 1 23.9-13.44h.64A30.48 30.48 0 0 1 68 110.6v62a30.47 30.47 0 0 1-30.52 30.5z" class="d"/><path d="M67.06 102.24a47.15 47.15 0 0 1-49.62-13 29.09 29.09 0 0 1 6-4.13 47.19 47.19 0 0 0 41 11.46 29.37 29.37 0 0 1 2.62 5.67z" class="f"/><path d="M189.1 208.42h-.63a33 33 0 0 1-33-33v-62a33 33 0 0 1 33-33h.63a33 33 0 0 1 33 33h-5a28 28 0 0 0-28-28h-.63a28 28 0 0 0-28 28v62a28 28 0 0 0 28 28h.63a28 28 0 0 0 28-28h5a33 33 0 0 1-33 33zM39.22 204.5a14.44 14.44 0 0 1-8-.65 11.58 11.58 0 0 1-7.25-7.51 29.14 29.14 0 0 1-1.09-6l-.3-5.76v-9.52l-14.4-58.94-.34-1.64-.2-2.5a17.91 17.91 0 0 1 0-3l.06-1.64.24-1.67a34.5 34.5 0 0 1 3.35-10.57l.5-1.12a12.18 12.18 0 0 1 .63-1l1.33-2a42.14 42.14 0 0 1 7.13-7.37A29.47 29.47 0 0 1 30 78.86a33.11 33.11 0 0 1 6.31-1.18l1.6-.16h1.6l3.16.13h.76l.76.1 1.5.23a34.28 34.28 0 0 1 14.83 6.71 32.76 32.76 0 0 1 9.91 12.91l1.13 3.16.8 3.25.3 2.1.15 1 .07 1 .17 2.85v8l-.18 10.63v2.8c.25 5.23 0 10.46 0 15.68v5.05c0 1.3-.06 2.63 0 3.93.07 2.9.07 5.8.07 8.7v6.53c0 .74-.07 1.55-.1 2.32v1.2a30 30 0 0 1-2.43 9.66 33.12 33.12 0 0 1-5.46 8.23 43.15 43.15 0 0 1-9.22 7.54c-.67.38-1.42.78-2.12 1.1a35.84 35.84 0 0 1-11.62 2.64h-.57A1.71 1.71 0 0 1 40 204a10.19 10.19 0 0 1 1.32-1.42 6.37 6.37 0 0 1 1.68-1.33 13.48 13.48 0 0 1 1.42-.38 10.05 10.05 0 0 0 3.91-1.45 7.83 7.83 0 0 1 2.17-1 25.18 25.18 0 0 0 8.62-5.42 29.33 29.33 0 0 0 6.1-8.23 25 25 0 0 0 2.5-8.36 19 19 0 0 0 .28-2.71c.07-.88.06-1.9.06-2.88V129c0-2.8 0-5.6.13-8.4.1-2.6.12-5.23.13-7.85 0-1.1 0-2.27-.07-3.27l-.08-1.56c0-.52-.15-1-.22-1.54l-.25-1.54-.4-1.5a22.12 22.12 0 0 0-1-2.95 28.93 28.93 0 0 0-4.4-7.61 30.09 30.09 0 0 0-6.56-5.88l-1.58-1c-.52-.33-1.1-.56-1.65-.84a30 30 0 0 0-3.43-1.39 28 28 0 0 0-7.27-1.3A27.49 27.49 0 0 0 27 85.32a6.58 6.58 0 0 0-.92.46 47.56 47.56 0 0 1-2.27 1.58c-.43.33-.85.7-1.3 1.1a15.61 15.61 0 0 0-1.4 1.23 26.88 26.88 0 0 0-2.69 3 29.07 29.07 0 0 0-2.36 3.4 28.65 28.65 0 0 0-3.59 10.26 26.71 26.71 0 0 0-.28 4 14.75 14.75 0 0 0 .11 2 19.07 19.07 0 0 0 .2 2c.3 1.33.45 2.56.85 4l8.98 35.75.56 2.17 2.35 9.8 1.97 8.05a2.07 2.07 0 0 1 .08.42v2.6c0 1.25-.06 2.5-.08 3.75-.12 5-.2 9.75.6 13.06a7.86 7.86 0 0 0 3.19 5.12l1.73 1.17a12.12 12.12 0 0 0 1.95.93 10.23 10.23 0 0 0 1.7.79 16 16 0 0 0 2.54.38c.85.1 1.3.37 1.07.65s-.52 1.27-.77 1.54z" class="Z"/><rect x="2.5" y="171.24" width="45.05" height="37.17" rx="18.58" class="a"/><rect x="10.62" y="176.84" width="28.81" height="23.77" rx="11.88" class="c"/><path d="M29 209.84h-7.92a21.09 21.09 0 0 1 0-42.17H29a21.09 21.09 0 0 1 0 42.17zm-7.9-37.17a16.09 16.09 0 0 0 0 32.17H29a16.09 16.09 0 0 0 0-32.17z" class="Z"/><rect x="180.82" y="171.24" width="45.05" height="37.17" rx="18.58" class="a"/><rect x="188.95" y="176.84" width="28.81" height="23.77" rx="11.88" class="c"/><path d="M207.3 209.84h-7.88a21.09 21.09 0 1 1 0-42.17h7.88a21.09 21.09 0 0 1 0 42.17zm-7.88-37.17a16.09 16.09 0 1 0 0 32.17h7.88a16.09 16.09 0 0 0 0-32.17z" class="Z"/><rect x="23.9" y="68.19" width="180.2" height="237.99" rx="90.1" class="c"/><path d="M117.45 307.75l-3.47.07a90.1 90.1 0 0 1-90.1-90.1v-57.8A90.1 90.1 0 0 1 114 69.83c1.16 0-5.68 0-4.53.07-48.16 1.8-75.64 41.43-75.64 90v57.8c-.02 48.63 35.46 88.25 83.62 90.06z" class="b"/><path d="M204.78 222.77A90.1 90.1 0 0 1 56 284.73a102.64 102.64 0 0 0 148.77-62zM183.9 100.12H81.25A46.9 46.9 0 0 1 56.68 107c-5.66 0-7.08-1-12.1-2.82a89.61 89.61 0 0 1 10.79-13.5c1.74.2-.5.3 1.3.3a46.9 46.9 0 0 0 24.57-6.91h87.57q3.15 2.6 6 5.5a89 89 0 0 1 9.07 10.54z" class="a"/><path d="M114 309.25a92.7 92.7 0 0 1-92.6-92.6v-57.8a92.6 92.6 0 0 1 185.2 0v57.8a92.7 92.7 0 0 1-92.6 92.6zm0-238a87.7 87.7 0 0 0-87.6 87.6v57.8a87.6 87.6 0 0 0 175.2 0v-57.78a87.7 87.7 0 0 0-87.6-87.6z" class="Z"/><path d="M206,89.08A80.53,80.53,0,0,0,125.47,8.55H79.1a47.17,47.17,0,1,0,0,80.53Z" class="d"/><path d="M206 89.06h-.13c-2.35-42.36-37.45-72.16-80.4-72.16H79.1A47 47 0 0 0 54.52 10C29.24 10 8.6 26.07 7.4 51.07V48.8A47.18 47.18 0 0 1 79.1 8.53h46.37A80.54 80.54 0 0 1 206 89.06z" class="g"/><path d="M205.05,75H79.1A47.18,47.18,0,0,1,7.77,40.89a48.63,48.63,0,0,0-.41,6.19A47.18,47.18,0,0,0,79.1,87.35H206A81.66,81.66,0,0,0,205.05,75Z" class="e"/><g class="Z"><path d="M25.75 63.5A26.58 26.58 0 0 1 46.48 20.3v5A21.6 21.6 0 0 0 24.9 46.88a21.29 21.29 0 0 0 4.75 13.5z" opacity=".4"/><path d="M51.77,52.37v-5a10.93,10.93,0,0,0,0-21.85v-5a15.93,15.93,0,0,1,0,31.85Z"/></g><g class="e"><circle cx="180.45" cy="70.33" r="9.01"/><circle cx="168.97" cy="56.79" r="4.02"/></g><g class="g"><circle cx="105" cy="20.42" r="6.49"/><circle cx="113.27" cy="30.17" r="2.89"/></g><path d="M17.4 181.24a9.53 9.53 0 0 0-.24 16 2.74 2.74 0 0 1-.26 2.2c-.5 1-1.7 1.33-2 1.12a13.34 13.34 0 0 1-4.9-7.17 13 13 0 0 1 .53-8.4 12.49 12.49 0 0 1 2.9-3.99 7.64 7.64 0 0 1 1.45-1.4c.75-.54 1.62-.8 1.88-.33.54.98.83 1.85.64 1.97zm196.18-4a14 14 0 0 1 .36 23.49c-.3.22-1.63-.32-2.27-1.53a3.92 3.92 0 0 1-.54-2.61 9.26 9.26 0 0 0 4-4.54 9.85 9.85 0 0 0 .38-6.4 10.41 10.41 0 0 0-1.62-3.7l-1.3-1.15c-.58-.53-1.13-1.1-.8-1.72.7-1.2 1.5-2.07 1.8-1.84zM84.46 114l3.65.45 3.6.4q3.6.33 7.2.45l7.3.06h22.05a127.9 127.9 0 0 0 14.43-1.16c.72-.1 2.74.8 2.9 2.16s-1.57 2.7-2.3 2.8a133.2 133.2 0 0 1-20 .72l-19.7-.52a130.15 130.15 0 0 1-11.68-1c-.36 0-2.7-.13-4.9-.47s-4.28-.83-4.2-1.5c.2-1.37.93-2.44 1.65-2.37zm7.98-8.66l2.7.33 2.6.28q2.63.24 5.25.33h21.52a93.92 93.92 0 0 0 10.53-.84 2.58 2.58 0 0 1 .62 5 98.11 98.11 0 0 1-14.74.39l-14.48-.5-8.6-.9c-.55 0-6.85-.33-6.66-1.7s.74-2.45 1.26-2.38z" class="Z"/><rect x="124.72" y="136.85" width="59.42" height="14.41" rx="7.2" transform="matrix(.967001 .254771 -.254771 .967001 41.78 -34.58)" class="a"/><rect x="127.27" y="132.44" width="59.42" height="14.41" rx="7.2" transform="matrix(.967001 .254771 -.254771 .967001 40.74 -35.38)" class="d"/><path d="M179.43 150.53a5.21 5.21 0 0 0 .68-10.18l-3.8-1-7.64-2-32.02-8.42-.35-.08a5.2 5.2 0 0 0-1.42-.05 5.06 5.06 0 0 0-2.63 1 5.19 5.19 0 0 0 1.58 9.11l7.55 2L172 149c1.5.4 5.2 2.3 4.92 3.37s-4.44.9-5.94.5l-35.68-9.77-1.27-.34-1.36-.4a8.94 8.94 0 0 1-2.81-1.57 8.73 8.73 0 0 1-1.69-11.57 8.57 8.57 0 0 1 8.21-3.78 5.08 5.08 0 0 1 .78.13c.26 0 .52.1.72.17l1.27.35 20.38 5.58 21 5.92a8.45 8.45 0 0 1 3 1.47 8.14 8.14 0 0 1 2.55 3.22 7.82 7.82 0 0 1-.47 7.18 7.55 7.55 0 0 1-5.77 3.65c-1.9.12-3-.52-2.94-.74a2.26 2.26 0 0 1 1-1.24 3.44 3.44 0 0 1 1.53-.6z" class="Z"/><rect x="50.91" y="136.83" width="59.42" height="14.41" rx="7.2" transform="matrix(.999907 .013613 -.013613 .999907 1.96 -1.08)" class="a"/><rect x="50.98" y="131.92" width="59.42" height="14.41" rx="7.2" transform="matrix(.999907 .013613 -.013613 .999907 1.9 -1.08)" class="d"/><path d="M105.64 144a5.2 5.2 0 0 0-1.8-10l-3.93-.06-7.9-.14-32.6-.43h-.83a5.06 5.06 0 0 0-1.39.29 5.13 5.13 0 0 0-2.3 1.62 5.19 5.19 0 0 0 3.73 8.46l7.8.12 31.6.43c1.55 0 5.6 1 5.6 2.08s-4.1 1.94-5.65 1.92L61 147.43h-1.32c-.45 0-.84 0-1.42-.06a8.62 8.62 0 0 1-3.1-.84 8.72 8.72 0 0 1-4.44-10.82 8.61 8.61 0 0 1 4.06-4.7 8.36 8.36 0 0 1 3-.95 4.1 4.1 0 0 1 .78-.06h2.06l21.13.5 21.77.68a8.64 8.64 0 0 1 3.32.7 8 8 0 0 1 3.24 2.5 7.84 7.84 0 0 1 1.29 7.08 7.58 7.58 0 0 1-4.72 4.94c-1.82.58-3.06.23-3 0a2.22 2.22 0 0 1 .68-1.45 3.54 3.54 0 0 1 1.31-.94z" class="Z"/><g class="a"><circle cx="155.06" cy="100.93" r="5.54"/><circle cx="163.08" cy="107.7" r="2.77"/><path d="M175.93 268a69.83 69.83 0 0 1-12.68 10c-4.55 2.86-9.27 5.35-14 7.8-.35.18-1.47.26-1.72-.23s.45-1.36.8-1.54a147.76 147.76 0 0 0 18.49-10.35c1.72-1.16 3.4-2.37 5-3.7l1.93-1.78c.87-.8 1.74-1.56 1.94-1.37.43.3.53.83.24 1.16zm4.72-5.77a12.67 12.67 0 0 1-3.21 3.63c-.05 0-.44-.23-.77-.67a2 2 0 0 1-.45-.92 10.42 10.42 0 0 0 2.27-1.68 8.64 8.64 0 0 0 .67-.56s.2-.67.68-.4.84.53.8.6zm4.82-5.38l-3.53 3.86a1.61 1.61 0 0 1-.89-.5c-.4-.38-.63-.8-.58-.85l2.66-2.3.86-.62s.42-.72.82-.35.7.7.66.76z"/></g><path d="M197.26 220.67v-42.45c0-.52.45-1.9 1-1.9s1 1.37 1 1.9l-.4 28.38-.22 8.36c0 .52.18 6.65-.37 6.65a1 1 0 0 1-1-.94z" fill="#eec2ae"/><g class="b"><path d="M46 259.62a70.13 70.13 0 0 1-6.62-16.32c-.06-.22 0-.82.3-.9s.62.42.68.63a67.54 67.54 0 0 0 3.73 11l1.4 3.15c.08.2 1.38 2.37 1.14 2.5a.44.44 0 0 1-.62-.07z"/><path d="M52.35 270.82a33.1 33.1 0 0 1-5.35-8.21.57.57 0 0 1 .28-.59.59.59 0 0 1 .63.18 32 32 0 0 0 3 5.62l1.06 1.56c.07.1 1 1.1.84 1.27s-.38.26-.46.17z" opacity=".45"/></g><path d="M172.87 35.4a60.06 60.06 0 0 0-30.17-13.33c-.4-.05-1.45-.4-1.42-.7s1.14-.35 1.55-.3a60.93 60.93 0 0 1 21.31 7.37 58.62 58.62 0 0 1 5.57 3.65c.18.1 1.25.88 2.25 1.67s1.9 1.63 1.8 1.73-.58.17-.9-.1zm7.53 9.73a38.6 38.6 0 0 0-8-6.81c-3-1.94-6.1-3.6-9.26-5.26-.23-.12-.74-.64-.6-.88s.84-.13 1.07 0a83.6 83.6 0 0 1 12.2 7.59 38.32 38.32 0 0 1 3.15 2.83c.1.08.72.66 1.27 1.26s1 1.22.9 1.3a.5.5 0 0 1-.72-.04z" class="g"/><path d="M122.5 72.26l-40.16.4c-.5 0-1.8-.65-1.8-1.48s1.27-1.5 1.77-1.52l26.86.34 7.9.25c.5 0 6.3-.33 6.3.5s-.38 1.5-.88 1.5zm17.5-5.78a96.1 96.1 0 0 1-15.27 0 95.68 95.68 0 0 0-14.85-.12 1.77 1.77 0 0 1-1.44-1.4 1.74 1.74 0 0 1 1.23-1.59 87.11 87.11 0 0 1 10.22.14c3.4.24 6.72.66 10 .87 2 .18 3.9.27 5.88.32.2 0 1.35-.13 2.48-.16s2.22 0 2.26.42c.06.8-.2 1.5-.5 1.52z" class="e"/><path d="M210.57 105.13a108.53 108.53 0 0 0-17.48 0c-.2 0-.85-.83-1-1.93s.4-2 .63-2.06a113.43 113.43 0 0 1 12.1.5l3.5.6c.22 0 2.84-.17 2.75.94s-.3 1.98-.5 1.96z" opacity=".5" class="f"/><path d="M211.2 108h-6.94c-.1 0-.3-.45-.3-1s.22-1 .3-1l4.64.4 1.36.22c.1 0 1.1-.18 1.1.37s-.07 1-.15 1z" opacity=".5" fill="#657177"/><path d="M114.7 214.7a2.5 2.5 0 0 1-2.5-2.5v-20.66a2.5 2.5 0 0 1 5 0v20.66a2.5 2.5 0 0 1-2.5 2.5z" class="Z"/><g class="a"><circle cx="81.95" cy="183.59" r="22.81"/><circle cx="147.2" cy="183.59" r="22.81"/></g><circle cx="82.18" cy="176.99" r="22.81" class="b"/><rect x="75.2" y="162.97" width="11.31" height="28.26" rx="5.65" class="Z"/><g class="b"><circle cx="86.08" cy="172.15" r="5.31"/><circle cx="147.25" cy="176.99" r="22.81"/></g><rect x="141.83" y="162.97" width="11.31" height="28.26" rx="5.65" class="Z"/><circle cx="152.71" cy="172.15" r="5.31" class="b"/><path d="M170.06 177.48a22.81 22.81 0 1 1-45.61 0 20.21 20.21 0 0 1 .1-2.07 22.8 22.8 0 0 0 45.41 0 20.21 20.21 0 0 1 .1 2.07zm-65.06 2c0 12.6-10.2 20.8-22.8 20.8a22.8 22.8 0 0 1-22.8-22.81 18.09 18.09 0 0 0 .1 1.93c1.05 11.62 10.8 16.72 22.7 16.72s21.66-5.1 22.7-16.72c.1.68.1-.63.1.07z" fill="#c2d9dd"/><path d="M127 179.9a20.36 20.36 0 0 0 12.32 17.37 20.08 20.08 0 0 0 7.26 1.57 20.3 20.3 0 0 0 13.79-4.8 20 20 0 0 0 7-12.82 4.4 4.4 0 0 1 .87-1.56 2.64 2.64 0 0 1 1.83-1.09 2.13 2.13 0 0 1 1.7 1.27 3.41 3.41 0 0 1 .56 2 25 25 0 0 1-14.18 19 24.55 24.55 0 0 1-23.15-1.33 23.31 23.31 0 0 1-5.27-4.57 23 23 0 0 1-3.71-5.81 19.75 19.75 0 0 1-2-5.44c-.5-2.6-.25-5.15.4-5.12 1.4.01 2.57.6 2.57 1.33zm-65.68-.37a20.3 20.3 0 0 0 33.37 14.15 20.07 20.07 0 0 0 7-12.83 4.4 4.4 0 0 1 .87-1.56 2.64 2.64 0 0 1 1.83-1.09 2.16 2.16 0 0 1 1.7 1.27 3.46 3.46 0 0 1 .56 2 25 25 0 0 1-14.18 18.95 24.5 24.5 0 0 1-23.14-1.31 23.27 23.27 0 0 1-5.33-4.53 22.83 22.83 0 0 1-3.71-5.82 19.75 19.75 0 0 1-2-5.44c-.5-2.6-.25-5.14.4-5.12 1.43.02 2.6.6 2.62 1.33zM216 115.73h6v2.5h-6zm6 54.57h-6v-4.65h6zm0-7.44h-6v-4.65h6zm0-7.44h-6v-4.65h6zm0-7.44h-6v-4.65h6zm0-7.44h-6v-4.65h6zm0-7.44h-6v-4.65h6zm0-7.44h-6V121h6zm-6 47.44h6v2.5h-6z" class="Z"/><path d="M75.95,220.88h76.57a4.2,4.2,0,0,1,4.2,4.2v25.6a37.62,37.62,0,0,1-37.62,37.62h0a47.35,47.35,0,0,1-47.35-47.35V225.08a4.2,4.2,0,0,1,4.2-4.2Z" fill="#963b3b"/><g fill="#872d2d"><ellipse cx="114.9" cy="257.95" rx="23.69" ry="15.75"/><circle cx="111.28" cy="273.25" r="5.67"/><circle cx="120.33" cy="279.78" r="2.53"/><path d="M98.45 281a1 1 0 0 1-.47-.12C86.53 274.8 80.73 267.86 78 257a1 1 0 1 1 1.94-.5c2.64 10.4 8 16.74 19 22.64a1 1 0 0 1-.47 1.89z"/></g><path d="M146.6 220.88v13.27c0 1.87-2 3.4-4.5 3.4h-56.8c-2.5 0-4.5-1.52-4.5-3.4v-9.87c0-1.88 2-3.4 4.5-3.4z" class="b"/><path d="M80.62 221.82h67.26v5.48H80.62z" fill="#c5d8e2"/><path d="M143.4 239.54h-58c-3.7 0-6.6-2.37-6.6-5.4v-13.27h4v13.27c0 .57 1 1.4 2.6 1.4h58c1.56 0 2.6-.84 2.6-1.4v-13.27h4v13.27c.01 3.02-2.9 5.4-6.6 5.4z" class="Z"/><path d="M36.57 106.8a46 46 0 0 0-9.64 17.85 1.67 1.67 0 0 1-1.7.5c-.8-.2-1.27-1-1.2-1.3a48.36 48.36 0 0 1 6.46-12.91l2.7-3.26c.12-.23 1.92-2.77 2.55-2.2s1 1.16.82 1.34zm-5.24-1.42a16.56 16.56 0 0 0-4.66 6.55 2.55 2.55 0 0 1-1.54-.17c-.78-.28-1.3-.8-1.26-.92a19.2 19.2 0 0 1 3.74-5.09l1.48-1.1c.06-.08.88-1.18 1.4-.53s.9 1.2.83 1.27z" class="e"/><path d="M78.437 325.805l72.31-.404.666 119.248-72.31.404z" fill="#24bacc"/><g class="h"><circle cx="130.13" cy="357.4" r="7.58"/><circle cx="120.41" cy="346.07" r="3.38"/></g><g fill="#eba42c"><path d="M89.468 450.605l55.88-.56.08 7.98-55.88.56z"/><path d="M87.5 450.1h55.88v7.98H87.5z"/><path d="M86.67 451.38h55.88v6.57H86.67z"/></g><path d="M86.67 446.73h55.88v4.64H86.67z" fill="#d38a20"/><g class="Z"><path d="M86.98 444.23h56.6v4h-56.6zm-.3 12.73h57.24v4H86.67z"/><path d="M104.67 447.55h4v12.84h-4zm15.45-1h4v13.84h-4z"/><circle cx="116.09" cy="453.09" r="1.33"/></g><path d="M79.53 438.22H54.3v-84.56a18.86 18.86 0 0 1 18.86-18.85h6.36z" class="b"/><path d="M73.87 438.4v21.06h-.5c-11 0-19.92-9.43-19.92-21.06z" class="c"/><path d="M88 462.93H77.1a2.92 2.92 0 0 1-2.92-2.93V338.26a16.91 16.91 0 0 1 16.91-16.91h0L94 456.84a6 6 0 0 1-6 6.09z" class="b"/><path d="M147 435h0c-7.3 0-13.23-13.3-13.23-29.74l-1.07-75.72 14.3-5.36z" class="h"/><g class="Z"><path d="M87.68 465.34h-10.9a4.92 4.92 0 0 1-4.92-4.91V338.67a18.94 18.94 0 0 1 18.91-18.91h2l2.9 137.45a8 8 0 0 1-8 8.13zm1.14-141.45a14.93 14.93 0 0 0-13 14.78v121.76a.92.92 0 0 0 .92.91h10.9a4 4 0 0 0 4-4z"/><path d="M73.86 462.22h-.48c-12.1 0-21.92-10.34-21.92-23.06v-22.1h.06c-.2-1.9-.2-6.8-.15-21.12l.1-20.95v-19.13c0-12.72 9.83-23.06 21.92-23.06h.48v4h-.48c-9.88 0-17.92 8.55-17.92 19.06V375l-.05 41.18.05.05v22.92c0 10.5 8 19.06 17.92 19.06h.48z"/><path d="M53.46 437.16h20.4v4h-20.4z"/></g><path d="M140.4 321.34c0 6.6-10.83 11.92-24.2 11.92S92 327.93 92 321.34c0-3 2.24-5.7 5.94-7.8 4.44 2.5 11 4.1 18.24 4.1s13.8-1.58 18.24-4.1c3.73 2.1 5.97 4.82 5.97 7.8z" fill="#24bacc"/><path d="M140.76 320.43c0 6.58-10.83 11.9-24.2 11.9-.88 0-1.74 0-2.6-.07a3.5 3.5 0 0 1 .11-.79 5.74 5.74 0 0 1 3.07-3.6 19.25 19.25 0 0 1 4.65-1.48 26.5 26.5 0 0 0 7.44-2.68 10.79 10.79 0 0 0 5-5.92 9.06 9.06 0 0 0 .05-4.9c.17-.1.34-.17.5-.27 3.72 2.1 5.96 4.82 5.96 7.8z" class="h"/><path d="M116.53 334.8c-14.68 0-26.18-6.1-26.18-13.9 0-3.63 2.47-7 7-9.55l1-.55 1 .56c4.3 2.43 10.6 3.83 17.26 3.83s13-1.4 17.25-3.83l1-.56 1 .55c4.5 2.53 7 5.92 7 9.55-.14 7.8-11.65 13.9-26.33 13.9zm-18.18-19.4c-2.6 1.66-4 3.6-4 5.5 0 5.84 11.7 9.9 22.18 9.9s22.2-4.07 22.2-9.9c0-1.9-1.42-3.84-4-5.5-4.8 2.42-11.34 3.8-18.18 3.8s-13.38-1.38-18.2-3.8z" class="Z"/><g class="b"><path d="M145.4 460.87h10.9a2.91 2.91 0 0 0 2.91-2.92V336.2a16.91 16.91 0 0 0-16.91-16.91h0l-2.87 135.5a6 6 0 0 0 5.97 6.09zm40.35-15.7h-20.4"/><path d="M154.28 331.92h0a25.22 25.22 0 0 1 25.22 25.22v78.2h-25.22z"/></g><path d="M158.36 332.34h6.3v104.6h-6.3z" fill="#dbcec8"/><path d="M158 436.32v21.06h.5c11 0 19.92-9.43 19.92-21.06z" class="c"/><path d="M164 437.4v20.52a19 19 0 0 1-4.48.54H159V437.4z" class="a"/><g fill="#dbcec8"><path d="M157.43 442.42v14.23a2.91 2.91 0 0 1-2.91 2.92h-10.9a5.9 5.9 0 0 1-4.73-2.35 21.22 21.22 0 0 0 18.55-14.8z"/><circle cx="150.43" cy="450.04" r="2.98"/><circle cx="146.61" cy="445.59" r="1.33"/></g><g class="Z"><path d="M176.95 370.72h3v3.5h-3zM180 394h-3v-5.77h3zm0-9.88h-3v-5.77h3zm-3.05 13.98h3v3.5h-3zm-21.5 64.77h-10.9a8 8 0 0 1-8-8.13l2.9-137.45h2a18.93 18.93 0 0 1 18.91 18.91V458a4.93 4.93 0 0 1-4.92 4.87zm-12-141.45l-2.82 133.4a4 4 0 0 0 4 4.05h10.9a.92.92 0 0 0 .92-.92V336.2a14.93 14.93 0 0 0-13.04-14.78z"/><path d="M158.84 459.75h-.48v-4h.48c9.88 0 17.92-8.55 17.92-19.06v-33.1h4v33.1c0 12.72-9.84 23.06-21.92 23.06zm21.92-91.48h-4V353.4c0-10.5-8-19.06-17.92-19.06h-.48v-4h.48c12.08 0 21.92 10.34 21.92 23.06z"/><path d="M158.36 434.7h20.4v4h-20.4z"/></g><path d="M53.85 415.68a1 1 0 0 1-.7-1.7l12.28-12.6a1.001 1.001 0 1 1 1.43 1.4l-12.3 12.6a1 1 0 0 1-.71.3zm5-11.58a1 1 0 0 1-.7-.28 1 1 0 0 1 0-1.41l7.28-7.6a1.004 1.004 0 1 1 1.45 1.39l-7.28 7.6a1 1 0 0 1-.75.31z" fill="#3c3127"/><path d="M114.24 290.3a44.53 44.53 0 0 1-44.49-44.48v-20.47a6.47 6.47 0 0 1 6.46-6.46h76.06a6.47 6.47 0 0 1 6.45 6.46v20.47a44.53 44.53 0 0 1-44.48 44.48zm-38-67.4a2.46 2.46 0 0 0-2.46 2.46v20.47a40.49 40.49 0 0 0 81 0v-20.47a2.46 2.46 0 0 0-2.45-2.46z" class="Z"/><g class="b"><path d="M50.53 114.17a75.23 75.23 0 0 0-5 10.82l-2.1 5.65a28.72 28.72 0 0 0-1.57 5.61c0 .27-.56.95-1.1.92s-.92-.9-.87-1.2a40.19 40.19 0 0 1 2.56-7.86l3.12-7.5q1-2.16 2.2-4.25c.1-.28 1.65-3.46 2.14-3.16s.77.7.63.96z"/><path d="M38.27 145.14l.63-5.72a1.53 1.53 0 0 1 1-.14 1.58 1.58 0 0 1 1 .36l-.83 3.78-.34 1.1c0 .07.08.9-.47.85a2.19 2.19 0 0 1-.99-.23z" opacity=".8"/></g><path d="M54.52 99.33A49.67 49.67 0 1 1 79.79 6.9h45.68a83.13 83.13 0 0 1 83 83 2.5 2.5 0 0 1-2.5 2.5H79.8a49.54 49.54 0 0 1-25.27 6.93zm0-94.33a44.67 44.67 0 1 0 23.27 82.8 2.54 2.54 0 0 1 1.31-.37h124.36a78.14 78.14 0 0 0-78-75.53H79.1a2.53 2.53 0 0 1-1.31-.36A44.52 44.52 0 0 0 54.52 5z" class="Z"/></svg>