<svg xmlns="http://www.w3.org/2000/svg" viewBox="0 0 278.75 423.27"><style><![CDATA[.M{fill:#3e3127}.N{fill:#fff}.O{fill:#fdd2bf}.P{fill:#e8af94}.Q{fill:#19a5af}.R{fill:#d32d24}]]></style><path d="M210.24 386.05h-18.17m-9.87-100.88h2.62A19.85 19.85 0 0 1 204.68 305v72.27H182.2z" class="N"/><path d="M185.84 285.55h5.62v93.17h-5.62z" fill="#dbcec8"/><path d="M185.56,378.17v18.76H186c9.8,0,17.74-8.4,17.74-18.76Z" class="O"/><path d="M190.87,379.15v18.27a16.54,16.54,0,0,1-4,.49h-.43V379.15Z" class="P"/><g class="M"><path d="M202.24 319.74h3v3.5h-3zm0 9.53h3v8.44h-3zm0 14.47h3v3.5h-3zm-15.97 55.53h-.43v-4h.43c8.68 0 15.75-7.52 15.75-16.76V349h4v29.48c-.02 11.52-8.86 20.8-19.75 20.8z"/><path d="M206 317.55h-4V304.3c0-9.24-7.07-16.76-15.75-16.76h-.43v-4h.43c10.9 0 19.75 9.3 19.75 20.76zm-20.16 58.95H204v4h-18.17z"/></g><path d="M93.85 375H72.9v-67.43a18.51 18.51 0 0 1 18.5-18.51h2.44z" class="N"/><path d="M89.15 375.1v17.5h-.4c-9.14 0-16.55-7.83-16.55-17.5z" class="O"/><g class="M"><path d="M89.14 395.23h-.4c-10.22 0-18.54-8.74-18.54-19.5V357.4h.08c-.27-2.45-.23-9.83-.08-34.94v-15.9c0-10.75 8.32-19.5 18.54-19.5h.4v4h-.4c-8 0-14.54 6.95-14.54 15.5v69.18c0 8.54 6.52 15.5 14.54 15.5h.4z"/><path d="M72.2 373.74h16.95v4H72.2z"/></g><path d="M95.444 276.92l81.84-.457.69 123.648-81.84.457z" fill="#24bacc"/><g class="Q"><circle cx="140.61" cy="348.58" r="8.58"/><circle cx="129.6" cy="335.76" r="3.82"/><ellipse cx="133.43" cy="363.27" rx="3.36" ry="4.35"/></g><g fill="#eba42c"><path d="M105.632 407.284l63.25-.353.05 9.04-63.25.353z"/><path d="M105.68 406.3h63.25v9.04h-63.25z"/><path d="M104.74 407.73H168v7.44h-63.25z"/></g><path d="M104.74 402.48H168v5.25h-63.25z" fill="#d38a20"/><g class="M"><path d="M105.1 399.9h64.07v4H105.1zm-.36 14.4h64.78v4h-64.78z"/><path d="M125.37 403.4h4v14.53h-4zm17.5-1.13h4v15.66h-4z"/><circle cx="138.04" cy="409.67" r="1.51"/></g><path d="M106.24 420.8H93.9a3.3 3.3 0 0 1-3.3-3.3V291a19.13 19.13 0 0 1 19.13-19.13H113v142a6.75 6.75 0 0 1-6.76 6.94z" class="N"/><path d="M173 400.5h0a33.68 33.68 0 0 1-33.67-33.67l-3.14-82.5 36.15-8.26z" class="Q"/><path d="M119.64 189.5h38.24a0 0 0 0 1 0 0v71.72A16.89 16.89 0 0 1 141 278.12h-4.45a16.89 16.89 0 0 1-16.89-16.89V189.5a0 0 0 0 1 0 0z" class="O"/><path d="M159.8 236v11.5a102.8 102.8 0 0 1-38.24.77V236.8a102.23 102.23 0 0 0 38.24-.77z" class="P"/><path d="M141 280.67h-4.45a19.41 19.41 0 0 1-19.39-19.39v-74.22h43.24v74.22a19.42 19.42 0 0 1-19.4 19.39zm-18.84-88.6v69.22a14.41 14.41 0 0 0 14.39 14.39H141a14.41 14.41 0 0 0 14.4-14.39v-69.22zm-16.28 231.2H93.54a5.29 5.29 0 0 1-5.29-5.3V291.5a21.16 21.16 0 0 1 21.13-21.14h5.25v3.22l.1 32.36-.1 51.72v56.73a8.74 8.74 0 0 1-8.75 8.89zm3.5-148.92a17.15 17.15 0 0 0-17.13 17.14V418a1.3 1.3 0 0 0 1.29 1.3h12.34a4.73 4.73 0 0 0 4.75-4.85v-56.8l.1-51.67-.1-31.6z" class="M"/><path d="M165.54 271.88c0 7.45-12.25 13.48-27.38 13.48s-27.36-6-27.36-13.48c0-3.38 2.53-6.47 6.72-8.83 5 2.84 12.42 4.63 20.64 4.63s15.64-1.8 20.65-4.63c4.2 2.36 6.73 5.45 6.73 8.83z" fill="#24bacc"/><path d="M166 270.84c0 7.45-12.26 13.48-27.38 13.48-1 0-2 0-2.93-.1a4.43 4.43 0 0 1 .12-.89 6.58 6.58 0 0 1 3.48-4.08 22.39 22.39 0 0 1 5.26-1.67 30.07 30.07 0 0 0 8.42-3 12.25 12.25 0 0 0 5.68-6.7 10.32 10.32 0 0 0 0-5.54l.57-.3c4.2 2.33 6.78 5.42 6.78 8.8z" class="Q"/><path d="M138.53 286.83c-16.46 0-29.36-6.8-29.36-15.48 0-4 2.75-7.76 7.74-10.57l1-.55 1 .55c4.9 2.78 12.07 4.37 19.65 4.37s14.77-1.6 19.66-4.37l1-.55 1 .55c5 2.8 7.76 6.56 7.76 10.57-.07 8.65-12.98 15.48-29.45 15.48zm-20.6-22c-3.08 2-4.77 4.25-4.77 6.53 0 5.55 10.2 11.48 25.36 11.48s25.38-5.93 25.38-11.48c0-2.28-1.7-4.57-4.78-6.53-5.4 2.76-12.83 4.33-20.6 4.33s-15.17-1.58-20.6-4.34z" class="M"/><path d="M171.2 418.47h12.34a3.29 3.29 0 0 0 3.29-3.29V288.7a19.12 19.12 0 0 0-19.13-19.13h0l-.9 62.24-2.35 79.78a6.74 6.74 0 0 0 6.75 6.89z" class="N"/><g fill="#dbcec8"><path d="M184.83 397.6v16.1a3.3 3.3 0 0 1-3.3 3.3h-12.35a6.67 6.67 0 0 1-5.35-2.66 24 24 0 0 0 21-16.75z"/><circle cx="176.9" cy="406.22" r="3.37"/><circle cx="172.58" cy="401.18" r="1.5"/></g><path d="M182.58 420.48h-12.34a8.74 8.74 0 0 1-8.75-8.94h0L164.25 298l.52-30.4h2a21.16 21.16 0 0 1 21.13 21.13v126.45a5.3 5.3 0 0 1-5.32 5.3zm-17.1-8.85a4.75 4.75 0 0 0 4.75 4.85h12.34a1.3 1.3 0 0 0 1.29-1.3V288.7a17.16 17.16 0 0 0-15.17-17l-.46 26.38z" class="M"/><circle cx="65.65" cy="164.42" r="64.47" fill="#f65143"/><path d="M72.26 227.4l-4.62.17a64.47 64.47 0 1 1 0-128.94l4.62.17a64.47 64.47 0 0 0 0 128.6z" class="N"/><path d="M67 229.88a67 67 0 1 1 67-67 67 67 0 0 1-67 67zm0-128.94a62 62 0 1 0 62 62 62 62 0 0 0-62-62z" class="M"/><circle cx="210.46" cy="164.42" r="64.47" class="R"/><path d="M211.78 229.88a67 67 0 1 1 67-67 67 67 0 0 1-67 67zm0-128.94a62 62 0 1 0 62 62 62 62 0 0 0-62-62z" class="M"/><rect x="52.46" y="13.56" width="173.57" height="225.7" rx="80.39" class="O"/><path d="M144.87 239l-6.28.22a86.79 86.79 0 0 1-86.79-86.75v-52.12a86.79 86.79 0 0 1 86.79-86.79q3.18 0 6.28.23a86.78 86.78 0 0 0-80.5 86.56v52.12a86.79 86.79 0 0 0 80.5 86.53z" class="N"/><path d="M226 99.7v52.12a86.79 86.79 0 0 1-86.79 86.78h-.17V12.9h.17A86.79 86.79 0 0 1 226 99.69z" class="P"/><path d="M138.78 181.8a2.5 2.5 0 0 1-2.5-2.5v-23.4a2.5 2.5 0 0 1 5 0v23.4a2.5 2.5 0 0 1-2.5 2.5z" class="M"/><g class="N"><circle cx="66.38" cy="133.49" r="10.2"/><circle cx="81.54" cy="121.33" r="4.67"/></g><path d="M126.52 148.14a2 2 0 0 1-2-2 14.66 14.66 0 0 0-29.32 0 2 2 0 0 1-4 0 18.66 18.66 0 0 1 37.32 0 2 2 0 0 1-2 2zm57.75 0a2 2 0 0 1-2-2 14.67 14.67 0 0 0-29.33 0 2 2 0 0 1-4 0 18.67 18.67 0 0 1 37.33 0 2 2 0 0 1-2 2zm-40.52 93.62H132.1a83.55 83.55 0 0 1-83.46-83.46V94.52a83.55 83.55 0 0 1 83.46-83.46h11.65a83.55 83.55 0 0 1 83.46 83.46v63.78a83.55 83.55 0 0 1-83.46 83.46zM132.1 16.06a78.55 78.55 0 0 0-78.46 78.46v63.78a78.55 78.55 0 0 0 78.46 78.46h11.65a78.55 78.55 0 0 0 78.46-78.46V94.52a78.55 78.55 0 0 0-78.46-78.46z" class="M"/><path d="M233 103.52c0-55.7-43.4-102.2-96.9-102.2s-96.87 46.5-96.87 102.2h40.33l13.9-34.1 7.27 34.1h13.9V82.66l12.56 20.86h19.18l10.58-38 9.06 38z" fill="#f65143"/><path d="M235 104.18h-67l-9-38.05-10.6 38.05h-19.25l-3.93-6.52c29.77-24.13 31.4-66.1 28.4-94.34C199.74 11.27 235 54 235 104.18z" class="R"/><path d="M145 .14C93.8 2.92 53.1 48.25 53.1 102.2h-9.9C43.2 46.5 86.58 0 140.08 0c1.65 0 3.3.05 4.92.14z" fill="#ff9797"/><path d="M236.8 107.34h-71.46l-7.27-30.54-8.5 30.54h-22.5L118.44 93v14.36H100l-6-28.14-11.42 28.12H38.06v-2.5a106.9 106.9 0 0 1 29.05-73.69c18.86-20 43.83-31 70.32-31s51.46 11 70.32 31a106.9 106.9 0 0 1 29.05 73.69zm-67.5-5h62.48a101.81 101.81 0 0 0-27.66-67.76c-17.9-19-41.58-29.43-66.68-29.43S88.65 15.6 70.75 34.58a101.81 101.81 0 0 0-27.66 67.76H79.2L95.53 62.3l8.55 40.05h9.36V75l16.48 27.35h15.86l12.67-45.56z" class="M"/><g class="R"><circle cx="149.56" cy="43.5" r="10.2"/><circle cx="136.58" cy="28.18" r="4.55"/></g><path d="M139,213.86a23.14,23.14,0,0,1-23.12-23.12,2,2,0,0,1,4,0,19.12,19.12,0,1,0,38.23,0,2,2,0,0,1,4,0A23.14,23.14,0,0,1,139,213.86Z" class="M"/><g fill="#ff9797"><ellipse cx="61.8" cy="88.47" rx="1.57" ry="2.24" transform="matrix(.930737 -.365689 .365689 .930737 -28.07 28.73)"/><ellipse cx="72.44" cy="81.69" rx="1.27" ry="1.9" transform="matrix(.930737 -.365689 .365689 .930737 -24.86 32.16)"/><ellipse cx="67.1" cy="73.47" rx="5.95" ry="4.4" transform="matrix(.306858 -.951755 .951755 .306858 -23.42 114.78)"/></g><g class="N"><ellipse cx="19.87" cy="153.42" rx="1.57" ry="2.24" transform="matrix(.930737 -.365689 .365689 .930737 -54.74 17.9)"/><ellipse cx="30.51" cy="146.65" rx="1.27" ry="1.9" transform="matrix(.930737 -.365689 .365689 .930737 -51.52 21.32)"/><ellipse cx="25.17" cy="138.42" rx="5.95" ry="4.4" transform="matrix(.306858 -.951755 .951755 .306858 -114.3 119.89)"/><path d="M89 29.88a134.54 134.54 0 0 0-10.24 11.33 45.56 45.56 0 0 0-7.37 13c-.12.34-.85 1.12-1.38 1s-.64-1.2-.5-1.6c2.42-6.66 6.7-12.32 11.33-17.38q2.1-2.22 4.28-4.32c.25-.3 3.23-3.6 3.63-3.2s.5.92.26 1.2zm8.26-6.45l-5.2 3.82c-.07 0-.5-.2-.83-.64a1.49 1.49 0 0 1-.36-1l3.73-2.22 1.16-.58c.06 0 .7-.74 1-.3s.57.87.5.92z"/></g></svg>